<?xml version="1.0" encoding="utf-8"?>
<!-- Generator: Adobe Illustrator 28.3.0, SVG Export Plug-In . SVG Version: 6.00 Build 0)  -->
<svg version="1.1" xmlns="http://www.w3.org/2000/svg" xmlns:xlink="http://www.w3.org/1999/xlink" x="0px" y="0px"
	 viewBox="0 0 120 160.5" style="enable-background:new 0 0 120 160.5;" xml:space="preserve">
<style type="text/css">
	.st0{enable-background:new    ;}
	.st1{fill:#BC1F30;}
	.st2{fill:#971927;}
	.st3{fill:#D53244;}
	.st4{fill:#EE4457;}
</style>
<g id="Shape_3119_copy_9_1_" class="st0">
</g>
<g id="Shape_3120_copy_9_1_" class="st0">
</g>
<g id="Shape_3121_copy_9_1_" class="st0">
</g>
<g id="Shape_3122_copy_10_3_" class="st0">
</g>
<g id="Shape_3122_copy_10_2_" class="st0">
	<g>
		<g id="Shape_3119_copy_9_3_">
			<g>
				<polygon class="st1" points="82.5,28.5 120,43.5 120,24.44 118.5,21 69,0 51,6 30,78 51,153 64.5,160.5 118.5,138 120,133.5 
					120,114 82.5,127.5 79.5,126 66,75 79.5,30 				"/>
			</g>
		</g>
		<g id="Shape_3120_copy_9_2_">
			<g>
				<polygon class="st2" points="82.5,27 79.5,28.5 74.12,47.94 120,43.5 				"/>
			</g>
		</g>
		<g id="Shape_3121_copy_9_3_">
			<g>
				<polygon class="st2" points="74.38,106.64 79.5,127.5 82.5,129 120,114 				"/>
			</g>
		</g>
		<g id="Shape_3122_copy_10_7_">
			<g>
				<polygon class="st3" points="51,6 22.5,19.5 19.5,24 0,78 19.5,129 22.5,133.5 51,153 31.5,79.19 				"/>
			</g>
		</g>
		<g id="Shape_3122_copy_10_5_">
			<g>
				<polygon class="st4" points="22.5,19.5 19.5,24 0,78 31.5,79.19 51,6 				"/>
			</g>
		</g>
	</g>
</g>
</svg>
