<svg width="48" height="48" viewBox="0 0 48 48" fill="none" xmlns="http://www.w3.org/2000/svg">
<path fill-rule="evenodd" clip-rule="evenodd" d="M7.9992 5.46639C11.2009 5.24339 16.4297 5 24 5C31.5704 5 36.7991 5.2434 40.0008 5.46639C41.516 5.57192 42.6251 6.6619 42.7563 8.09847C43.002 10.7894 43.25 14.953 43.25 20.7985C43.25 26.644 43.002 30.8075 42.7563 33.4985C42.6251 34.935 41.516 36.025 40.0008 36.1306C37.0068 36.3391 32.2403 36.5654 25.444 36.5939C24.9708 36.5959 24.5137 36.7656 24.1538 37.0729L17.3068 42.9184V38.4779C17.3068 37.3961 16.4465 36.5103 15.3651 36.4788C12.2336 36.3874 9.79684 36.2558 7.9992 36.1306C6.48401 36.025 5.3749 34.935 5.24371 33.4985C4.99796 30.8075 4.75 26.644 4.75 20.7985C4.75 14.953 4.99796 10.7894 5.24371 8.09847C5.37491 6.6619 6.48401 5.57192 7.9992 5.46639ZM24 1C16.3443 1 11.0225 1.24613 7.72128 1.47605C4.31548 1.71326 1.57597 4.278 1.26029 7.73468C1.00274 10.5549 0.750002 14.8401 0.75 20.7985C0.75 26.7568 1.00273 31.0421 1.26029 33.8623C1.57597 37.3189 4.31548 39.8837 7.72128 40.1209C9.1798 40.2225 11.0326 40.3272 13.3068 40.4125V43.0721C13.3068 46.4387 17.2553 48.2219 19.7944 46.0541L26.1946 40.59C32.6845 40.5486 37.3026 40.3282 40.2787 40.1209C43.6845 39.8837 46.424 37.3189 46.7397 33.8623C46.9973 31.0421 47.25 26.7568 47.25 20.7985C47.25 14.8401 46.9973 10.5549 46.7397 7.73468C46.424 4.278 43.6845 1.71326 40.2787 1.47606C36.9775 1.24613 31.6558 1 24 1ZM25.4813 8.92748C23.4876 9.01357 21.6786 9.6773 20.3019 10.6376C19.2942 11.3405 18.3276 12.4905 17.8808 13.6896C17.4482 14.8505 17.5308 15.9271 18.3532 16.8127C19.1461 17.6665 20.4802 17.7235 21.6676 16.9487C22.5749 16.3567 24.0491 15.4136 25.233 14.7483C25.7581 14.4533 26.4228 14.6331 26.7274 15.1528C27.032 15.6724 26.8643 16.3403 26.3503 16.6544C26.0986 16.8082 25.8347 16.9651 25.5638 17.1263C24.5606 17.723 23.4605 18.3775 22.5224 19.1421C21.2964 20.1415 20.7105 21.0464 20.7462 21.8745L20.8537 24.4459C20.8919 25.3613 21.6657 26.072 22.5811 26.0325L23.939 25.9738C24.8535 25.9344 25.5628 25.161 25.5233 24.2466C25.5041 23.8008 25.7333 23.3863 26.1097 23.1627C28.1464 21.9529 29.8007 20.9197 30.9432 19.7045C32.0315 18.5469 32.637 17.2416 32.5583 15.4186C32.4822 13.6556 31.8759 11.9812 30.7471 10.7886C29.6416 9.62049 27.9485 8.82093 25.4813 8.92748ZM23.3713 27.235C21.8027 27.3028 20.5861 28.6293 20.6538 30.1978C20.7215 31.7664 22.048 32.983 23.6166 32.9153C25.1851 32.8475 26.4018 31.5211 26.334 29.9525C26.2663 28.384 24.9398 27.1673 23.3713 27.235Z" fill="white"/>
</svg>
