<svg width="64" height="34" viewBox="0 0 64 34" fill="none" xmlns="http://www.w3.org/2000/svg">
<g clip-path="url(#clip0_201_214)">
<path d="M7.88481 2.63721H7.84988C6.73107 2.63721 5.8241 3.54418 5.8241 4.66299V11.1551C5.8241 12.2739 6.73107 13.1809 7.84988 13.1809H7.88481C9.00362 13.1809 9.9106 12.2739 9.9106 11.1551V4.66299C9.9106 3.54418 9.00362 2.63721 7.88481 2.63721Z" stroke="#222222" stroke-width="0.54574" stroke-linecap="round" stroke-linejoin="round"/>
<path d="M16.1888 8.84094V10.2206C16.1888 10.5389 16.4469 10.7969 16.7651 10.7969H21.5371C21.8554 10.7969 22.1134 10.5389 22.1134 10.2206V8.84094C22.1134 8.52266 21.8554 8.26464 21.5371 8.26464H16.7651C16.4469 8.26464 16.1888 8.52266 16.1888 8.84094Z" stroke="#222222" stroke-width="0.54574" stroke-linecap="round" stroke-linejoin="round"/>
<path d="M27.92 7.90674H26.3919C25.6855 7.90674 25.1127 8.47946 25.1127 9.18595V14.1675C25.1127 14.874 25.6855 15.4467 26.3919 15.4467H27.92C28.6265 15.4467 29.1992 14.874 29.1992 14.1675V9.18595C29.1992 8.47946 28.6265 7.90674 27.92 7.90674Z" stroke="#222222" stroke-width="0.54574" stroke-linecap="round" stroke-linejoin="round"/>
<path d="M19.6946 16.6211H36.4772" stroke="#222222" stroke-width="0.54574" stroke-linecap="round" stroke-linejoin="round"/>
<path d="M11.4212 16.6211H15.3505" stroke="#222222" stroke-width="0.54574" stroke-linecap="round" stroke-linejoin="round"/>
<path d="M19.6946 16.6212H32.1331V8.72325C32.1331 6.50972 30.3387 4.71533 28.1252 4.71533H17.206C14.9925 4.71533 13.1981 6.50972 13.1981 8.72325V16.6212H15.3505" stroke="#222222" stroke-width="0.54574" stroke-linecap="round" stroke-linejoin="round"/>
<path d="M34.3248 15.1934V18.9088" stroke="#222222" stroke-width="0.54574" stroke-linecap="round" stroke-linejoin="round"/>
<path d="M1.20935 18.9089H41.2448" stroke="#222222" stroke-width="0.659254" stroke-linecap="round" stroke-linejoin="round"/>
<path d="M27.156 11.3863C27.6358 11.3863 28.0248 10.9973 28.0248 10.5175C28.0248 10.0377 27.6358 9.64868 27.156 9.64868C26.6762 9.64868 26.2872 10.0377 26.2872 10.5175C26.2872 10.9973 26.6762 11.3863 27.156 11.3863Z" stroke="#222222" stroke-width="0.54574" stroke-linecap="round" stroke-linejoin="round"/>
<path d="M19.1533 8.2605V10.7927" stroke="#222222" stroke-width="0.54574" stroke-linecap="round" stroke-linejoin="round"/>
<path d="M17.5204 18.7909C18.7188 18.7909 19.6902 17.8194 19.6902 16.621C19.6902 15.4227 18.7188 14.4512 17.5204 14.4512C16.322 14.4512 15.3505 15.4227 15.3505 16.621C15.3505 17.8194 16.322 18.7909 17.5204 18.7909Z" stroke="#222222" stroke-width="0.54574" stroke-linecap="round" stroke-linejoin="round"/>
<path d="M17.5204 18.7909C18.7188 18.7909 19.6902 17.8194 19.6902 16.621C19.6902 15.4227 18.7188 14.4512 17.5204 14.4512C16.322 14.4512 15.3505 15.4227 15.3505 16.621C15.3505 17.8194 16.322 18.7909 17.5204 18.7909Z" stroke="#222222" stroke-width="0.54574" stroke-linecap="round" stroke-linejoin="round"/>
<path d="M14.39 16.7041C14.39 14.9752 15.7915 13.5737 17.5204 13.5737C19.2493 13.5737 20.6507 14.9752 20.6507 16.7041" stroke="#222222" stroke-width="0.576301" stroke-linejoin="round"/>
<path d="M34.3161 2.06954C33.6961 2.06954 33.1897 2.57162 33.1897 3.19595V3.23524C33.1897 3.8552 33.6918 4.36165 34.3161 4.36165H39.2234C39.8434 4.36165 40.3498 3.85957 40.3498 3.23524V3.19595C40.3498 2.57599 39.8477 2.06954 39.2234 2.06954H38.0009C38.0009 1.07848 37.1976 0.275146 36.2065 0.275146C35.2155 0.275146 34.4122 1.07848 34.4122 2.06954H34.3205" stroke="#222222" stroke-width="0.54574" stroke-linecap="round" stroke-linejoin="round"/>
<path d="M7.86737 6.54907V18.909" stroke="#222222" stroke-width="0.54574" stroke-linecap="round" stroke-linejoin="round"/>
<path d="M6.69727 10.1377L7.86733 11.1942" stroke="#222222" stroke-width="0.54574" stroke-linecap="round" stroke-linejoin="round"/>
<path d="M9.07236 7.58374L7.86737 8.78873" stroke="#222222" stroke-width="0.54574" stroke-linecap="round" stroke-linejoin="round"/>
<path d="M39.4111 18.8259L45.2396 9.31689" stroke="#222222" stroke-width="0.54574" stroke-linecap="round" stroke-linejoin="round"/>
<path d="M49.0642 18.8259L43.2357 9.31689" stroke="#222222" stroke-width="0.54574" stroke-linecap="round" stroke-linejoin="round"/>
<path d="M58.2544 18.8258L53.2424 10.6484H44.0477L49.0642 18.8258H58.2544Z" fill="#222222"/>
<path d="M33.897 18.9175H63.511" stroke="#222222" stroke-width="0.659254" stroke-linecap="round" stroke-linejoin="round"/>
<path d="M44.8205 18.9177L44.0957 15.6301L43.2793 18.9177" fill="#222222"/>
<path d="M7.65258 23.0895H8.54498V31.6467H7.65258V23.0895ZM2.29822 31.6467H1.3936V23.0895H2.29822V31.6467ZM7.73815 27.6982H2.20042V26.9036H7.73815V27.6982ZM9.96885 31.6467L13.8807 23.0895H14.7731L18.685 31.6467H17.7315L14.1374 23.6152H14.5042L10.9101 31.6467H9.96885ZM11.5091 29.3607L11.7781 28.6273H16.7535L17.0224 29.3607H11.5091ZM20.1005 31.6467V23.0895H23.3034C24.0287 23.0895 24.6522 23.2077 25.1737 23.444C25.6953 23.6722 26.0947 24.0064 26.3717 24.4465C26.657 24.8784 26.7996 25.404 26.7996 26.0234C26.7996 26.6265 26.657 27.1481 26.3717 27.5882C26.0947 28.0201 25.6953 28.3542 25.1737 28.5906C24.6522 28.8188 24.0287 28.9329 23.3034 28.9329H20.6017L21.0052 28.5172V31.6467H20.1005ZM25.9439 31.6467L23.7435 28.5417H24.7214L26.9341 31.6467H25.9439ZM21.0052 28.5906L20.6017 28.1627H23.2789C24.1346 28.1627 24.7826 27.9753 25.2226 27.6004C25.6709 27.2255 25.895 26.6999 25.895 26.0234C25.895 25.3388 25.6709 24.8091 25.2226 24.4342C24.7826 24.0593 24.1346 23.8719 23.2789 23.8719H20.6017L21.0052 23.444V28.5906ZM32.382 31.7201C31.29 31.7201 30.4302 31.4063 29.8026 30.7788C29.1751 30.1513 28.8614 29.2222 28.8614 27.9916V23.0895H29.766V27.9549C29.766 28.9655 29.9942 29.7112 30.4505 30.192C30.9069 30.6728 31.5508 30.9133 32.382 30.9133C33.2215 30.9133 33.8694 30.6728 34.3257 30.192C34.7821 29.7112 35.0103 28.9655 35.0103 27.9549V23.0895H35.8905V27.9916C35.8905 29.2222 35.5767 30.1513 34.9492 30.7788C34.3298 31.4063 33.4741 31.7201 32.382 31.7201Z" fill="#222222"/>
<path d="M38 26.2409L39.6765 22.5735H40.0607L41.7372 26.2409H41.3268L39.7857 22.8005H39.9428L38.4017 26.2409H38ZM38.6593 25.2629L38.7728 24.9485H40.9033L41.0169 25.2629H38.6549H38.6593Z" fill="#222222"/>
<path d="M43.7412 26.2714C43.274 26.2714 42.9029 26.1361 42.6366 25.8698C42.3659 25.5991 42.2349 25.2018 42.2349 24.6735V22.5735H42.6235V24.6604C42.6235 25.0926 42.7195 25.4113 42.916 25.6209C43.1125 25.8261 43.3875 25.9309 43.7455 25.9309C44.1035 25.9309 44.383 25.8261 44.5794 25.6209C44.7759 25.4157 44.8719 25.097 44.8719 24.6604V22.5735H45.2474V24.6735C45.2474 25.2018 45.1121 25.5991 44.8457 25.8698C44.5794 26.1404 44.2127 26.2714 43.7412 26.2714Z" fill="#222222"/>
<path d="M47.055 26.2409V22.9097H45.767V22.5735H48.7315V22.9097H47.4435V26.2409H47.055Z" fill="#222222"/>
<path d="M50.8969 26.2714C50.6219 26.2714 50.3643 26.2234 50.1285 26.1317C49.8928 26.04 49.6876 25.909 49.5173 25.7388C49.3427 25.5685 49.2117 25.372 49.1156 25.145C49.0196 24.918 48.9716 24.6735 48.9716 24.4028C48.9716 24.1321 49.0196 23.8876 49.1156 23.6606C49.2117 23.4336 49.347 23.2371 49.5173 23.0668C49.6919 22.8966 49.8928 22.7656 50.1285 22.6739C50.3643 22.5822 50.6175 22.5342 50.8969 22.5342C51.1763 22.5342 51.4296 22.5822 51.661 22.6739C51.8924 22.7656 52.0976 22.8966 52.2722 23.0625C52.4468 23.2284 52.5778 23.4292 52.6739 23.6562C52.7699 23.8832 52.8179 24.1321 52.8179 24.3984C52.8179 24.6647 52.7699 24.9136 52.6739 25.1406C52.5778 25.3677 52.4425 25.5641 52.2722 25.7344C52.0976 25.9003 51.8967 26.0313 51.661 26.123C51.4252 26.2146 51.172 26.2627 50.8969 26.2627V26.2714ZM50.8969 25.9265C51.1152 25.9265 51.3204 25.8872 51.5082 25.813C51.6959 25.7388 51.8574 25.6296 51.9971 25.4943C52.1368 25.3546 52.2416 25.1974 52.3202 25.014C52.3988 24.8307 52.4337 24.6298 52.4337 24.4072C52.4337 24.1845 52.3944 23.9837 52.3202 23.8003C52.246 23.6169 52.1368 23.4554 51.9971 23.32C51.8574 23.1847 51.6959 23.0756 51.5082 23.0013C51.3204 22.9271 51.1196 22.8878 50.8969 22.8878C50.6743 22.8878 50.4734 22.9271 50.2857 23.0013C50.098 23.0756 49.9321 23.1847 49.7967 23.32C49.657 23.4598 49.5522 23.6169 49.4736 23.8003C49.395 23.9837 49.3558 24.1845 49.3558 24.4072C49.3558 24.6298 49.395 24.8263 49.4736 25.0097C49.5522 25.193 49.6614 25.3546 49.7967 25.4943C49.9364 25.634 50.098 25.7388 50.2857 25.813C50.4734 25.8872 50.6786 25.9265 50.8969 25.9265Z" fill="#222222"/>
<path d="M40.1786 31.7595C39.9036 31.7595 39.646 31.7115 39.4146 31.6198C39.1832 31.5281 38.978 31.3971 38.8077 31.2312C38.6374 31.0653 38.5021 30.8645 38.406 30.6375C38.31 30.4104 38.262 30.1616 38.262 29.8953C38.262 29.6289 38.31 29.3801 38.406 29.153C38.5021 28.926 38.6374 28.7296 38.8077 28.5593C38.9823 28.3934 39.1832 28.2624 39.4189 28.1707C39.6547 28.079 39.9079 28.031 40.183 28.031C40.458 28.031 40.6981 28.0747 40.9339 28.1663C41.1697 28.258 41.3661 28.389 41.5277 28.568L41.2832 28.8125C41.1347 28.6597 40.9688 28.5462 40.7855 28.4807C40.6021 28.4108 40.41 28.3803 40.2004 28.3803C39.9909 28.3803 39.7769 28.4196 39.5892 28.4938C39.4015 28.568 39.2356 28.6772 39.0959 28.8125C38.9561 28.9522 38.847 29.1094 38.7684 29.2928C38.6898 29.4761 38.6505 29.677 38.6505 29.8996C38.6505 30.1223 38.6898 30.3231 38.7684 30.5065C38.847 30.6898 38.9561 30.8514 39.0959 30.9867C39.2356 31.1264 39.4015 31.2312 39.5892 31.3054C39.7769 31.3797 39.9821 31.419 40.2004 31.419C40.4187 31.419 40.6065 31.384 40.7855 31.3142C40.9688 31.2443 41.1347 31.1308 41.2832 30.978L41.5277 31.2225C41.3661 31.4015 41.1697 31.5368 40.9339 31.6242C40.6981 31.7115 40.4493 31.7595 40.1786 31.7595Z" fill="#222222"/>
<path d="M41.6718 31.7289L43.3483 28.0615H43.7325L45.409 31.7289H44.9986L43.4574 28.2886H43.6146L42.0734 31.7289H41.6718ZM42.331 30.7509L42.4445 30.4366H44.5751L44.6886 30.7509H42.3266H42.331Z" fill="#222222"/>
<path d="M46.0159 31.7289V28.0615H46.3346L48.0111 30.9212H47.8452L49.5042 28.0615H49.823V31.7289H49.4518V28.6422H49.5392L48.0111 31.2617H47.8277L46.2866 28.6422H46.387V31.7289H46.0159Z" fill="#222222"/>
<path d="M51.0192 31.7289V28.0615H52.3901C52.7 28.0615 52.9664 28.1095 53.1934 28.21C53.4161 28.3104 53.5907 28.4545 53.7086 28.6378C53.8308 28.8256 53.8876 29.0526 53.8876 29.3145C53.8876 29.5765 53.8265 29.7948 53.7086 29.9825C53.5863 30.1703 53.4161 30.3143 53.1934 30.4148C52.9707 30.5152 52.7044 30.5676 52.3901 30.5676H51.2331L51.4077 30.3842V31.7245H51.0192V31.7289ZM51.4077 30.4191L51.2331 30.2314H52.3813C52.7481 30.2314 53.0275 30.1528 53.2152 29.9913C53.4073 29.8341 53.499 29.6071 53.499 29.3189C53.499 29.0308 53.403 28.7994 53.2152 28.6378C53.0231 28.4763 52.7481 28.3977 52.3813 28.3977H51.2331L51.4077 28.2143V30.4191Z" fill="#222222"/>
<path d="M54.7302 31.7289V28.0615H55.1188V31.7289H54.7302Z" fill="#222222"/>
<path d="M56.3107 31.7289V28.0615H56.6294L59.1616 31.2486H58.9957V28.0615H59.3799V31.7289H59.0612L56.5377 28.5418H56.7036V31.7289H56.315H56.3107Z" fill="#222222"/>
<path d="M62.1785 31.7595C61.899 31.7595 61.6415 31.7115 61.4057 31.6198C61.1699 31.5281 60.9647 31.3971 60.7945 31.2312C60.6198 31.0653 60.4888 30.8645 60.3928 30.6375C60.2967 30.4104 60.2487 30.1616 60.2487 29.8953C60.2487 29.6289 60.2967 29.3801 60.3928 29.153C60.4888 28.926 60.6242 28.7296 60.7988 28.5593C60.9735 28.389 61.1787 28.2624 61.4144 28.1707C61.6502 28.079 61.9078 28.031 62.1872 28.031C62.4666 28.031 62.7242 28.0747 62.9556 28.162C63.187 28.2493 63.3878 28.3803 63.5494 28.5593L63.3092 28.8038C63.1564 28.651 62.9862 28.5418 62.8028 28.472C62.6194 28.4065 62.4186 28.3715 62.2046 28.3715C61.9776 28.3715 61.7681 28.4108 61.5803 28.4851C61.3882 28.5593 61.2223 28.6684 61.0826 28.8038C60.9429 28.9435 60.8294 29.1007 60.7508 29.284C60.6722 29.4674 60.6329 29.6682 60.6329 29.8909C60.6329 30.1135 60.6722 30.31 60.7508 30.4934C60.8294 30.6768 60.9385 30.8383 61.0826 30.978C61.2223 31.1177 61.3882 31.2225 61.5803 31.2967C61.7724 31.3709 61.9776 31.4102 62.2003 31.4102C62.4098 31.4102 62.6063 31.3797 62.794 31.3142C62.9818 31.2531 63.1521 31.1439 63.3092 30.9955L63.5275 31.288C63.3529 31.4408 63.1477 31.5587 62.9163 31.6373C62.6805 31.7158 62.436 31.7551 62.1828 31.7551L62.1785 31.7595ZM63.1521 31.2443V29.8909H63.5232V31.288L63.1521 31.24V31.2443Z" fill="#222222"/>
</g>
<defs>
<clipPath id="clip0_201_214">
<rect width="64" height="33.4255" fill="white"/>
</clipPath>
</defs>
</svg>
