<svg width="49" height="48" viewBox="0 0 49 48" fill="none" xmlns="http://www.w3.org/2000/svg">
<path fill-rule="evenodd" clip-rule="evenodd" d="M23.834 13.5C23.834 7.14873 28.9827 2 35.334 2C41.6853 2 46.834 7.14873 46.834 13.5C46.834 19.8513 41.6853 25 35.334 25C28.9827 25 23.834 19.8513 23.834 13.5ZM37.334 8.5C37.334 7.39543 36.4386 6.5 35.334 6.5C34.2294 6.5 33.334 7.39543 33.334 8.5V9C33.334 10.1046 34.2294 11 35.334 11C36.4386 11 37.334 10.1046 37.334 9V8.5ZM37.334 14.5C37.334 13.3954 36.4386 12.5 35.334 12.5C34.2294 12.5 33.334 13.3954 33.334 14.5V18.5C33.334 19.6046 34.2294 20.5 35.334 20.5C36.4386 20.5 37.334 19.6046 37.334 18.5V14.5ZM12.1433 29.2982C12.813 29.2683 13.545 29.25 14.3343 29.25C15.1235 29.25 15.8555 29.2682 16.525 29.2982C18.6077 29.3912 20.2969 30.9629 20.6288 33.1984C20.8582 34.7442 21.0895 36.5569 21.264 38.5015C14.6648 38.508 10.2542 38.5353 7.3985 38.5633C7.57361 36.5955 7.80732 34.7608 8.03917 33.1988C8.37099 30.9631 10.0604 29.3912 12.1433 29.2982ZM3.36822 38.7449C3.55554 36.48 3.82089 34.3742 4.08251 32.6115C4.47428 29.9719 5.9983 27.682 8.2084 26.3959C7.03864 25.0049 6.33398 23.2097 6.33398 21.25C6.33398 16.8317 9.9157 13.25 14.334 13.25C18.7523 13.25 22.334 16.8317 22.334 21.25C22.334 23.2097 21.6294 25.0048 20.4597 26.3958C22.6697 27.6818 24.1936 29.9717 24.5854 32.6111C24.8376 34.3102 25.0933 36.3282 25.2792 38.5001C36.3609 38.5033 41.888 38.5627 44.3121 38.601C45.5076 38.6199 46.9475 39.2001 47.2125 40.7301C47.2862 41.1558 47.3335 41.665 47.3335 42.2713C47.3335 42.8654 47.2881 43.3663 47.2169 43.7867C46.9546 45.3356 45.495 45.9187 44.2858 45.9316C41.7833 45.9584 36.0125 46 24.3335 46C12.6557 46 6.88489 45.9584 4.38198 45.9316C3.17211 45.9187 1.7123 45.335 1.45027 43.7856C1.37921 43.3654 1.33398 42.8648 1.33398 42.2713C1.33398 41.6656 1.38108 41.1567 1.45467 40.7312C1.64841 39.6111 2.47175 38.9996 3.36822 38.7449ZM14.334 17.25C12.1249 17.25 10.334 19.0409 10.334 21.25C10.334 23.4591 12.1249 25.25 14.334 25.25C16.5431 25.25 18.334 23.4591 18.334 21.25C18.334 19.0409 16.5431 17.25 14.334 17.25Z" fill="white"/>
</svg>
