<svg width="49" height="48" viewBox="0 0 49 48" fill="none" xmlns="http://www.w3.org/2000/svg">
<path fill-rule="evenodd" clip-rule="evenodd" d="M8.66717 5.46639C11.8689 5.24339 17.0977 5 24.668 5C32.2384 5 37.4671 5.2434 40.6688 5.46639C42.184 5.57192 43.2931 6.6619 43.4243 8.09847C43.67 10.7894 43.918 14.953 43.918 20.7985C43.918 26.644 43.67 30.8075 43.4243 33.4985C43.2931 34.935 42.184 36.025 40.6688 36.1306C37.6748 36.3391 32.9083 36.5654 26.112 36.5939C25.6388 36.5959 25.1817 36.7656 24.8218 37.0729L17.9748 42.9184V38.4779C17.9748 37.3961 17.1145 36.5103 16.0331 36.4788C12.9016 36.3874 10.4648 36.2558 8.66717 36.1306C7.15198 36.025 6.04287 34.935 5.91168 33.4985C5.66593 30.8075 5.41797 26.644 5.41797 20.7985C5.41797 14.953 5.66593 10.7894 5.91168 8.09847C6.04288 6.6619 7.15198 5.57192 8.66717 5.46639ZM24.668 1C17.0123 1 11.6905 1.24613 8.38925 1.47605C4.98345 1.71326 2.24394 4.278 1.92826 7.73468C1.67071 10.5549 1.41797 14.8401 1.41797 20.7985C1.41797 26.7568 1.6707 31.0421 1.92826 33.8623C2.24394 37.3189 4.98345 39.8837 8.38925 40.1209C9.84777 40.2225 11.7006 40.3272 13.9748 40.4125V43.0721C13.9748 46.4387 17.9233 48.2219 20.4624 46.0541L26.8626 40.59C33.3525 40.5486 37.9706 40.3282 40.9467 40.1209C44.3525 39.8837 47.092 37.3189 47.4077 33.8623C47.6653 31.0421 47.918 26.7568 47.918 20.7985C47.918 14.8401 47.6653 10.5549 47.4077 7.73468C47.092 4.278 44.3525 1.71326 40.9467 1.47606C37.6455 1.24613 32.3238 1 24.668 1ZM24.6679 8.75C23.9806 8.75 23.3756 8.80473 22.853 8.88795C21.0499 9.17508 20.2252 10.9059 20.3746 12.5327C20.564 14.5931 20.8666 17.5553 21.198 19.4853C21.3847 20.5729 22.138 21.5374 23.3445 21.6791C23.71 21.722 24.1477 21.75 24.6679 21.75C25.188 21.75 25.6257 21.722 25.9912 21.6791C27.1977 21.5374 27.951 20.5729 28.1377 19.4853C28.4691 17.5553 28.7717 14.5931 28.9611 12.5327C29.1105 10.9059 28.2858 9.17508 26.4827 8.88795C25.9601 8.80473 25.3551 8.75 24.6679 8.75ZM20.6679 27.75C20.6679 25.5409 22.4587 23.75 24.6679 23.75C26.877 23.75 28.6679 25.5409 28.6679 27.75C28.6679 29.9591 26.877 31.75 24.6679 31.75C22.4587 31.75 20.6679 29.9591 20.6679 27.75Z" fill="white"/>
</svg>
