<svg width="24" height="24" viewBox="0 0 24 24" fill="none" xmlns="http://www.w3.org/2000/svg">
<path d="M16.7149 6.63808V5.35237C16.7149 5.23451 16.6185 5.13808 16.5006 5.13808H6.21488C6.09703 5.13808 6.0006 5.23451 6.0006 5.35237V6.63808C6.0006 6.75594 6.09703 6.85237 6.21488 6.85237H16.5006C16.6185 6.85237 16.7149 6.75594 16.7149 6.63808ZM6.21488 8.99522C6.09703 8.99522 6.0006 9.09165 6.0006 9.20951V10.4952C6.0006 10.6131 6.09703 10.7095 6.21488 10.7095H11.1435C11.2613 10.7095 11.3577 10.6131 11.3577 10.4952V9.20951C11.3577 9.09165 11.2613 8.99522 11.1435 8.99522H6.21488ZM16.2863 12.1024C13.0908 12.1024 10.5006 14.6925 10.5006 17.8881C10.5006 21.0836 13.0908 23.6738 16.2863 23.6738C19.4818 23.6738 22.072 21.0836 22.072 17.8881C22.072 14.6925 19.4818 12.1024 16.2863 12.1024ZM19.1658 20.7675C18.397 21.5363 17.3738 21.9595 16.2863 21.9595C15.1988 21.9595 14.1756 21.5363 13.4068 20.7675C12.6381 19.9988 12.2149 18.9756 12.2149 17.8881C12.2149 16.8006 12.6381 15.7774 13.4068 15.0086C14.1756 14.2399 15.1988 13.8167 16.2863 13.8167C17.3738 13.8167 18.397 14.2399 19.1658 15.0086C19.9345 15.7774 20.3577 16.8006 20.3577 17.8881C20.3577 18.9756 19.9345 19.9988 19.1658 20.7675ZM18.6702 15.8524H17.4836C17.414 15.8524 17.3497 15.8845 17.3095 15.9408L15.6086 18.2925L14.9899 17.4381C14.9701 17.4105 14.9439 17.388 14.9136 17.3727C14.8833 17.3573 14.8498 17.3494 14.8158 17.3497H13.6345C13.4604 17.3497 13.3586 17.5479 13.4604 17.6899L15.4372 20.4247C15.5229 20.5425 15.697 20.5425 15.7827 20.4247L18.8417 16.1925C18.9461 16.0506 18.8443 15.8524 18.6702 15.8524ZM10.072 21.1024H3.85774V2.24522H18.8577V11.4595C18.8577 11.5774 18.9542 11.6738 19.072 11.6738H20.572C20.6899 11.6738 20.7863 11.5774 20.7863 11.4595V1.17379C20.7863 0.699686 20.4033 0.31665 19.9292 0.31665H2.78631C2.3122 0.31665 1.92917 0.699686 1.92917 1.17379V22.1738C1.92917 22.6479 2.3122 23.0309 2.78631 23.0309H10.072C10.1899 23.0309 10.2863 22.9345 10.2863 22.8167V21.3167C10.2863 21.1988 10.1899 21.1024 10.072 21.1024Z" fill="#222222"/>
</svg>
