<svg xmlns="http://www.w3.org/2000/svg" fill="none" viewBox="0 0 24 24" id="Calendar-Add-On--Streamline-Rounded-Material" height="24" width="24"><desc>Calendar Add On Streamline Icon: https://streamlinehq.com</desc><path fill="#ffffff" d="M17.5 19h-2.25c-0.2125 0 -0.3906 -0.07235 -0.53425 -0.217 -0.14385 -0.1445 -0.21575 -0.32365 -0.21575 -0.5375 0 -0.21365 0.0719 -0.39135 0.21575 -0.533 0.14365 -0.14165 0.32175 -0.2125 0.53425 -0.2125H17.5v-2.25c0 -0.2125 0.07235 -0.39065 0.217 -0.5345 0.1445 -0.14365 0.32365 -0.2155 0.5375 -0.2155 0.21365 0 0.39135 0.07185 0.533 0.2155 0.14165 0.14385 0.2125 0.322 0.2125 0.5345V17.5h2.25c0.2125 0 0.39065 0.07235 0.5345 0.217 0.14365 0.1445 0.2155 0.32365 0.2155 0.5375 0 0.21365 -0.07185 0.39135 -0.2155 0.533 -0.14385 0.14165 -0.322 0.2125 -0.5345 0.2125H19v2.25c0 0.2125 -0.07235 0.3906 -0.217 0.53425 -0.1445 0.14385 -0.32365 0.21575 -0.5375 0.21575 -0.21365 0 -0.39135 -0.0719 -0.533 -0.21575C17.57085 21.6406 17.5 21.4625 17.5 21.25V19ZM4.5 20c-0.4 0 -0.75 -0.15 -1.05 -0.45 -0.3 -0.3 -0.45 -0.65 -0.45 -1.05V5c0 -0.4 0.15 -0.75 0.45 -1.05C3.75 3.65 4.1 3.5 4.5 3.5h1.625V2.8c0 -0.226665 0.07665 -0.416665 0.23 -0.57 0.15335 -0.153335 0.34335 -0.23 0.57 -0.23 0.23365 0 0.4296 0.076665 0.58775 0.23s0.23725 0.343335 0.23725 0.57V3.5h6.5V2.8c0 -0.226665 0.07665 -0.416665 0.23 -0.57 0.15335 -0.153335 0.34335 -0.23 0.57 -0.23 0.23385 0 0.42975 0.076665 0.58775 0.23 0.15815 0.153335 0.23725 0.343335 0.23725 0.57V3.5H17.5c0.4 0 0.75 0.15 1.05 0.45 0.3 0.3 0.45 0.65 0.45 1.05v6.725c0 0.2125 -0.07235 0.3906 -0.217 0.53425 -0.1445 0.14385 -0.32365 0.21575 -0.5375 0.21575 -0.21365 0 -0.39135 -0.0719 -0.533 -0.21575 -0.14165 -0.14365 -0.2125 -0.32175 -0.2125 -0.53425V9.75H4.5V18.5h7.25c0.2125 0 0.39065 0.07235 0.5345 0.217 0.14365 0.1445 0.2155 0.32365 0.2155 0.5375 0 0.21365 -0.07185 0.39135 -0.2155 0.533 -0.14385 0.14165 -0.322 0.2125 -0.5345 0.2125H4.5Zm0 -11.75h13V5H4.5v3.25Z" stroke-width="0.5"></path></svg>