<svg xmlns="http://www.w3.org/2000/svg" viewBox="0 0 16 16" id="Arrow-To-Up-Line--Streamline-Mingcute" height="16" width="16"><desc>Arrow To Up Line Streamline Icon: https://streamlinehq.com</desc><g fill="none" fill-rule="nonzero"><path d="M16 0v16H0V0h16ZM8.395999999999999 15.505333333333333l-0.008 0.0013333333333333333 -0.047333333333333324 0.023333333333333334 -0.013333333333333332 0.0026666666666666666 -0.009333333333333332 -0.0026666666666666666 -0.047333333333333324 -0.023999999999999997c-0.006666666666666666 -0.002 -0.012666666666666666 0 -0.016 0.004l-0.0026666666666666666 0.006666666666666666 -0.011333333333333334 0.2853333333333333 0.003333333333333333 0.013333333333333332 0.006666666666666666 0.008666666666666666 0.06933333333333333 0.049333333333333326 0.009999999999999998 0.0026666666666666666 0.008 -0.0026666666666666666 0.06933333333333333 -0.049333333333333326 0.008 -0.010666666666666666 0.0026666666666666666 -0.011333333333333334 -0.011333333333333334 -0.2846666666666666c-0.0013333333333333333 -0.006666666666666666 -0.005999999999999999 -0.011333333333333334 -0.010666666666666666 -0.011999999999999999Zm0.176 -0.07533333333333334 -0.009333333333333332 0.0013333333333333333 -0.12266666666666666 0.062 -0.006666666666666666 0.006666666666666666 -0.002 0.007333333333333332 0.011999999999999999 0.2866666666666666 0.003333333333333333 0.008 0.005333333333333333 0.005333333333333333 0.134 0.06133333333333333c0.008 0.0026666666666666666 0.015333333333333332 0 0.019333333333333334 -0.005333333333333333l0.0026666666666666666 -0.009333333333333332 -0.02266666666666667 -0.4093333333333333c-0.002 -0.008 -0.006666666666666666 -0.013333333333333332 -0.013333333333333332 -0.014666666666666665Zm-0.4766666666666666 0.0013333333333333333a0.015333333333333332 0.015333333333333332 0 0 0 -0.018 0.004l-0.004 0.009333333333333332 -0.02266666666666667 0.4093333333333333c0 0.008 0.004666666666666666 0.013333333333333332 0.011333333333333334 0.016l0.009999999999999998 -0.0013333333333333333 0.134 -0.062 0.006666666666666666 -0.005333333333333333 0.002 -0.007333333333333332 0.011999999999999999 -0.2866666666666666 -0.002 -0.008 -0.006666666666666666 -0.006666666666666666 -0.12266666666666666 -0.06133333333333333Z" stroke-width="0.6667"></path><path fill="#FFFFFF" d="M12.666666666666666 3.333333333333333a0.6666666666666666 0.6666666666666666 0 1 0 0 -1.3333333333333333H3.333333333333333a0.6666666666666666 0.6666666666666666 0 1 0 0 1.3333333333333333h9.333333333333332ZM4.699999999999999 8.468666666666666a0.6666666666666666 0.6666666666666666 0 0 0 0.9433333333333334 0L7.333333333333333 6.778V13.333333333333332a0.6666666666666666 0.6666666666666666 0 0 0 1.3333333333333333 0v-6.5553333333333335l1.6906666666666665 1.6906666666666665a0.6666666666666666 0.6666666666666666 0 0 0 0.9426666666666665 -0.9433333333333334l-2.828666666666667 -2.828a0.6666666666666666 0.6666666666666666 0 0 0 -0.9426666666666665 0L4.699999999999999 7.525333333333333a0.6666666666666666 0.6666666666666666 0 0 0 0 0.9433333333333334Z" stroke-width="0.6667"></path></g></svg>