<svg width="184" height="87" viewBox="0 0 184 87" fill="none" xmlns="http://www.w3.org/2000/svg">
<path d="M2.15951 36.0586C3.57972 22.1629 3.02297 4.58478 20.1626 2.13211C28.3069 0.966659 38.6411 9.43252 41.1549 16.5493C43.24 22.4527 47.9372 29.0265 43.5371 35.1377C40.0809 39.9377 34.0251 42.0543 28.4936 39.2746C12.7852 31.3807 28.3569 14.4892 38.7205 12.2944C52.8661 9.29851 81.8699 35.3334 74.8963 50.4524C68.9171 63.4155 56.7363 52.6513 60.1164 41.7337C64.8712 26.3758 73.5221 22.2555 89.8024 29.5489C102.514 35.2436 106.999 52.9678 103.722 64.7011C103.041 67.138 103.02 82.1681 101.159 81.4573C82.8028 74.4437 97.8965 46.0983 111.806 43.2659C127.787 40.0115 143.994 36.901 158.673 44.3769C166.566 48.3971 185.763 66.6454 180.521 59.5051C173.96 50.5694 165.913 37.8983 165.802 26.253C165.768 22.7878 165.395 11.7249 166.223 22.264C167.076 33.118 167.574 42.6985 170.297 52.6742C170.903 54.8942 174.897 56.7036 176.587 58.0838C178.018 59.2528 171.063 59.9372 170.299 60.1742C163.696 62.22 158.958 67.1248 154.835 72.4667C151.155 77.2347 147.787 84.6693 143.371 84.425" stroke="white" stroke-width="4" stroke-linecap="round" stroke-linejoin="round"/>
</svg>
