<svg width="90" height="176" viewBox="0 0 90 176" fill="none" xmlns="http://www.w3.org/2000/svg">
<path d="M2.71216 3.45809C33.8811 10.7611 28.1787 8.8238 52.4494 28.3829C57.9926 32.8501 66.4399 38.6547 68.0199 44.7901C70.3517 53.8443 50.738 75.4277 39.7036 63.5084C32.5724 55.8053 34.7486 45.7162 46.4268 45.4662C65.5782 45.0563 79.7989 61.6993 84.8556 74.5055C90.4228 88.6044 84.0449 101.312 68.2614 106.479C61.0509 108.839 49.975 104.646 56.6874 97.761C70.4938 83.5986 83.6821 107.299 80.9246 118.106C75.9577 137.57 44.06 157.613 16.2343 147.271C7.53433 144.038 10.6118 141.723 14.4521 140.351C18.3488 138.958 28.3212 132.946 25.5816 135.457C20.7923 139.847 15.0378 140.779 8.55831 142.558C0.20097 144.853 16.9098 157.483 21.7089 161.738C24.2283 163.971 27.7983 168.522 28.3231 171.384C29.3596 177.035 20.1706 160.858 18.7168 155.213" stroke="white" stroke-width="5" stroke-linecap="round" stroke-linejoin="round"/>
</svg>
