<svg width="355" height="180" viewBox="0 0 355 180" fill="none" xmlns="http://www.w3.org/2000/svg">
<path d="M349.677 143.696L353.741 134.905" stroke="#999999" stroke-width="1.11583" stroke-miterlimit="22.9256" stroke-linecap="round" stroke-linejoin="round"/>
<path d="M291.479 30.3008L353.486 139.316" stroke="#6A6A6E" stroke-width="1.11583" stroke-miterlimit="22.9256" stroke-linecap="round" stroke-linejoin="round"/>
<path fill-rule="evenodd" clip-rule="evenodd" d="M212.521 163.663C198.995 141.937 172.74 61.9838 171.946 40.2578C196.726 43.6052 267.066 38.9863 291.999 29.4263C292.701 48.6007 315.871 119.164 327.809 138.337C305.428 136.259 236.63 154.028 212.521 163.663Z" fill="#4F5055"/>
<path fill-rule="evenodd" clip-rule="evenodd" d="M171.946 40.2565C154.596 34.7874 128.881 19.1716 117.049 7.23173C136.938 8.10111 217.294 6.36341 243.55 0.278809C251.975 11.0165 274.443 24.822 291.998 29.4239C267.065 38.985 196.726 43.6039 171.946 40.2565Z" fill="#6A6A6E"/>
<path fill-rule="evenodd" clip-rule="evenodd" d="M36.6924 141.936C43.0575 128.031 65.7041 60.0231 67.7213 37.6506C85.2241 31.5671 109.092 16.7929 117.049 7.23291C128.881 19.1717 154.596 34.7886 171.946 40.2577C172.739 61.9848 198.995 141.937 212.521 163.663C197.886 159.839 182.423 158.216 167.989 155.538C165.333 130.649 160.736 55.7284 160.736 43.572C142.502 45.1604 94.3617 44.3667 75.3964 42.7784C75.3964 54.2339 68.565 117.606 65.6059 143.799C53.7056 143.312 48.9341 143.268 36.6924 141.936Z" fill="#CBC553"/>
<path fill-rule="evenodd" clip-rule="evenodd" d="M66.7822 133.275C87.4895 127.694 104.57 122.601 117.032 121.051C127.247 123.182 146.805 126.482 165.771 129.715C163.349 97.5386 160.737 52.734 160.737 43.5729C142.503 45.1613 94.3624 44.3677 75.3971 42.7793C75.3971 52.9004 70.0656 103.549 66.7822 133.275Z" fill="#BAB445"/>
<path fill-rule="evenodd" clip-rule="evenodd" d="M165.288 123.172C163.013 91.7635 160.735 52.1271 160.735 43.572C142.501 45.1603 94.3605 44.3667 75.3952 42.7783C75.3952 52.0844 70.8883 95.6442 67.6113 125.708C87.4812 120.455 106.167 116.105 118.231 114.603C128.774 116.802 145.837 119.85 165.288 123.172Z" fill="#CBC553"/>
<path fill-rule="evenodd" clip-rule="evenodd" d="M108.841 64.7507C108.028 77.8213 105.601 87.968 103.018 99.2177C88.7651 100.935 79.5348 103.065 63.5488 107.384C63.9243 100.888 67.2194 87.776 68.828 74.0473C72.5861 41.9388 110.214 42.661 108.841 64.7507Z" fill="#D9D364"/>
<path fill-rule="evenodd" clip-rule="evenodd" d="M105.368 66.0893C104.148 77.4596 102.78 87.3396 100.076 96.0451C88.0623 97.306 77.5145 99.5589 67.9385 102.053C68.9743 95.3368 71.3968 83.7501 72.568 72.9975C75.0514 50.2282 107.532 45.9272 105.368 66.0893Z" fill="white"/>
<path fill-rule="evenodd" clip-rule="evenodd" d="M117.032 121.052C121.255 121.898 159.638 128.67 165.771 129.716C163.348 97.5389 160.737 52.7343 160.737 43.5732C153.185 44.2314 140.5 44.481 126.883 44.433C124.847 67.4231 120.379 105.295 117.032 121.052Z" fill="#948E21"/>
<path fill-rule="evenodd" clip-rule="evenodd" d="M212.522 163.663C200.925 145.037 179.976 83.6189 173.732 52.7799C202.269 55.1533 265.534 50.8288 293.918 42.1265C299.717 69.3653 317.182 120.48 327.299 137.498L327.643 138.325C305.093 136.346 236.575 154.052 212.522 163.663Z" fill="#A6A030"/>
<path fill-rule="evenodd" clip-rule="evenodd" d="M207.438 154.093C195.597 129.189 179.143 79.5056 173.731 52.7799C202.268 55.1533 265.533 50.8288 293.917 42.1265C298.788 65.0024 311.885 104.716 321.947 126.932C292.118 128.632 230.681 144.831 207.438 154.093Z" fill="#CBC553"/>
<path fill-rule="evenodd" clip-rule="evenodd" d="M236.514 51.3846C258.554 49.4826 280.268 46.3112 293.916 42.1265C298.787 65.0024 311.884 104.716 321.947 126.932C307.714 127.744 286.286 131.856 265.246 136.939C255.118 113.824 242.737 76.7535 236.514 51.3846Z" fill="#DEC9BA"/>
<path d="M13.701 144.728L9.63574 135.938" stroke="#999999" stroke-width="1.11583" stroke-miterlimit="22.9256" stroke-linecap="round" stroke-linejoin="round"/>
<path d="M67.7219 37.6504L10.7354 142.288" stroke="#6A6A6E" stroke-width="1.11583" stroke-miterlimit="22.9256" stroke-linecap="round" stroke-linejoin="round"/>
<path fill-rule="evenodd" clip-rule="evenodd" d="M39.6133 134.79C48.1801 112.41 65.9443 57.3467 67.7215 37.6496C85.2243 31.5661 109.092 16.7919 117.049 7.23193C128.881 19.1707 154.597 34.7876 171.946 40.2567C172.65 59.4983 193.322 124.406 207.437 154.092C199.061 152.383 184.708 150.209 167.251 147.915C164.563 118 160.737 54.6639 160.737 43.5721C142.502 45.1604 94.3619 44.3668 75.3966 42.7784C75.3966 53.3273 69.6042 107.898 66.3774 136.923C56.9742 136.099 47.9551 135.377 39.6133 134.79Z" fill="#DBD672"/>
<path fill-rule="evenodd" clip-rule="evenodd" d="M165.29 123.172C163.014 91.7633 160.737 52.1269 160.737 43.5718C153.184 44.2299 140.5 44.4796 126.883 44.4316C125.089 64.71 121.399 96.5635 118.258 114.608C128.8 116.806 145.854 119.853 165.29 123.172Z" fill="#DEC9BA"/>
<path fill-rule="evenodd" clip-rule="evenodd" d="M231.923 77.1537C235.219 90.8217 239.301 103.245 242.82 116.229C227.538 117.715 218.15 120.591 202.221 125.487C199.347 118.123 193.065 101.416 191.279 87.694C186.769 53.0148 226.019 52.667 231.923 77.1537Z" fill="#D9D364"/>
<path fill-rule="evenodd" clip-rule="evenodd" d="M228.668 78.6714C231.272 90.4107 234.205 101.843 237.875 112.632C224.897 114.062 214.392 117.306 204.802 120.134C200.352 112.198 197.11 98.4005 194.989 86.5022C190.541 61.5601 223.71 56.3235 228.668 78.6714Z" fill="#DEC9BA"/>
<path fill-rule="evenodd" clip-rule="evenodd" d="M207.471 66.5864V120.896L204.802 121.685L204.621 121.357V67.5486C205.543 67.1475 206.499 66.8254 207.471 66.5864Z" fill="#E8D8CC"/>
<path fill-rule="evenodd" clip-rule="evenodd" d="M156.633 43.8633V121.685L153.78 121.19V44.0094C154.774 43.9646 155.725 43.9156 156.633 43.8633Z" fill="#E8D8CC"/>
<path fill-rule="evenodd" clip-rule="evenodd" d="M160.187 44.3471C150.987 43.6794 101.549 27.6604 86.8277 19.6492C58.0283 23.7935 19.7286 20.7288 2.03809 18.0801C16.76 26.0912 66.1984 42.1102 75.3989 42.7769C95.5504 43.1364 134.619 46.5841 160.187 44.3471Z" fill="#4F5055"/>
<path d="M2.03711 18.0815L7.14032 141.165" stroke="#6A6A6E" stroke-width="2.23194" stroke-miterlimit="22.9256" stroke-linecap="round" stroke-linejoin="round"/>
<path d="M86.8271 19.6494L91.829 148.899" stroke="#6A6A6E" stroke-width="2.23194" stroke-miterlimit="22.9256" stroke-linecap="round" stroke-linejoin="round"/>
<path fill-rule="evenodd" clip-rule="evenodd" d="M86.8275 19.6492C87.6233 25.5717 87.2584 27.958 86.5277 31.5368C57.7283 35.68 19.4287 32.6153 1.74023 29.9677C2.46987 26.3888 2.83575 24.0025 2.03784 18.0801C24.6033 22.1176 69.1327 22.7193 86.8275 19.6492Z" fill="#6A6A6E"/>
<path d="M236.035 178.805L240.099 170.014" stroke="#999999" stroke-width="1.11583" stroke-miterlimit="22.9256" stroke-linecap="round" stroke-linejoin="round"/>
<path d="M171.946 40.2568L240.11 176.086" stroke="#6A6A6E" stroke-width="1.11583" stroke-miterlimit="22.9256" stroke-linecap="round" stroke-linejoin="round"/>
</svg>
